<?xml version="1.0" encoding="UTF-8"?>
<svg id="Layer_2" data-name="Layer 2" xmlns="http://www.w3.org/2000/svg" viewBox="0 0 655.87 1054.39">
  <defs>
    <style>
      .cls-1 {
        fill: #6164f2;
      }

      .cls-1, .cls-2 {
        stroke-width: 0px;
      }

      .cls-2 {
        fill: #4b4f99;
      }
    </style>
  </defs>
  <g id="Layer_1-2" data-name="Layer 1">
    <path class="cls-1" d="M6.83,446.61l322.51-191.85,190.78,185.27-220.13,148.59,55.03,89.89,300.84-203.62L333.14,5.46c-4.96-7.21-15.58-7.29-20.64-.15L2.76,442.19c-1.92,2.71,1.22,6.11,4.08,4.42Z"/>
    <path class="cls-2" d="M324.68.15c-4.48-.68-9.26,1.02-12.19,5.15L2.76,442.17c-1.92,2.71,1.22,6.11,4.08,4.42l317.85-189.08V.15Z"/>
    <path class="cls-1" d="M649.04,607.78l-322.51,191.85-190.78-185.27,220.13-148.59-55.03-89.89L0,579.51l322.73,469.42c4.96,7.21,15.58,7.29,20.64.15l309.74-436.88c1.92-2.71-1.22-6.11-4.08-4.42Z"/>
    <path class="cls-2" d="M331.19,1054.24c4.48.68,9.26-1.02,12.19-5.15l309.74-436.88c1.92-2.71-1.22-6.11-4.08-4.42l-317.85,189.08v257.36Z"/>
  </g>
</svg>